Coordinates
version=1
nRows=6
nColumns=36
inDegrees=yes

Units are S.I. units (second, meters, Newtons, ...)
If the header above contains a line with 'inDegrees', this indicates whether rotational values are in degrees (yes) or radians (no).

endheader
time	pelvis_tilt	pelvis_list	pelvis_rotation	pelvis_tx	pelvis_ty	pelvis_tz	hip_flexion_r	hip_adduction_r	hip_rotation_r	knee_angle_r	knee_angle_r_beta	ankle_angle_r	subtalar_angle_r	mtp_angle_r	hip_flexion_l	hip_adduction_l	hip_rotation_l	knee_angle_l	knee_angle_l_beta	ankle_angle_l	subtalar_angle_l	mtp_angle_l	lumbar_extension	lumbar_bending	lumbar_rotation	arm_flex_r	arm_add_r	arm_rot_r	elbow_flex_r	pro_sup_r	arm_flex_l	arm_add_l	arm_rot_l	elbow_flex_l	pro_sup_l
      3.25000000	    -40.90101413	     -0.70700497	      0.02149832	     -0.36718111	      0.72020568	     -0.69001010	     95.47839361	    -16.20540897	     -3.07108439	     69.66878184	      1.21594963	     22.45833854	      7.06808405	     -7.49999987	     95.52500904	    -14.47228375	     -3.63137148	     68.76483634	      1.20017280	     20.94151222	      2.02443745	     -7.49999987	    -24.77006841	     -1.50788691	      0.45761303	    123.65160021	    -26.32498315	     35.50308754	     94.85044892	     99.60140118	    121.22588538	    -25.54786223	     32.49523144	     96.27560064	    102.87801596
      3.26000000	    -40.65723889	     -0.70336901	      0.11623313	     -0.36737503	      0.71503326	     -0.69040527	     96.07195596	    -16.48488925	     -2.87698528	     70.91903333	      1.23777063	     22.59909297	      7.00186246	     -7.49999987	     96.12343769	    -14.56131315	     -3.59690948	     70.03010040	      1.22225583	     21.03454587	      2.03027640	     -7.49999987	    -25.43246436	     -1.44451619	      0.31351485	    123.92782244	    -26.06099543	     35.43989492	     95.03423508	     99.60186300	    121.59981413	    -25.24185414	     32.40151672	     96.40562943	    102.87393012
      3.27000000	    -39.99109342	     -0.57486461	      0.27723388	     -0.36733833	      0.71023914	     -0.69073872	     96.33815422	    -16.88022229	     -2.56943979	     72.34720806	      1.26269699	     23.53065365	      7.26607027	     -7.49999987	     96.21414192	    -14.62914342	     -3.71480335	     71.32612292	      1.24487569	     21.83980217	      2.48238371	     -7.49999987	    -26.68717122	     -1.53564382	      0.02696824	    124.62293295	    -25.91888431	     35.57284793	     94.85258117	     99.55304638	    122.58116579	    -25.01200609	     32.65056531	     95.98426792	    102.79217529
      3.28000000	    -39.59665018	     -0.58463643	      0.34313899	     -0.36748779	      0.70497531	     -0.69079684	     96.80167905	    -17.08823229	     -2.31247920	     73.68519191	      1.28604921	     24.22260947	      7.68794710	     -7.49999987	     96.66103297	    -14.79487086	     -3.63988431	     72.62674836	      1.26757588	     22.66039535	      2.83845206	     -7.49999987	    -27.54857753	     -1.54025946	     -0.08539497	    125.13816123	    -25.89700875	     35.67517793	     94.97046033	     99.52702581	    123.38829882	    -24.88473781	     33.09297822	     95.84214136	    102.75978006
      3.29000000	    -39.41711944	     -0.62202691	      0.42237079	     -0.36782465	      0.69929388	     -0.69102215	     97.49490648	    -17.32564899	     -2.11683535	     74.97431377	      1.30854863	     24.43950656	      7.59519987	     -7.49999987	     97.35863144	    -14.87467836	     -3.47561061	     73.88049024	      1.28945781	     22.90768360	      2.72715527	     -7.49999987	    -28.08018638	     -1.44829165	     -0.16953864	    125.47920788	    -25.75772679	     35.61964278	     95.13672079	     99.52785805	    123.77899064	    -24.69753375	     33.10472125	     95.91032629	    102.76754203
      3.30000000	    -39.21359718	     -0.65961661	      0.56009887	     -0.36820393	      0.69349907	     -0.69146237	     98.16650133	    -17.61892677	     -1.92590582	     76.27327503	      1.33121978	     24.92322675	      7.44900436	     -7.49999987	     98.04236762	    -14.85433909	     -3.31514247	     75.14825083	      1.31158440	     23.42065965	      2.57126241	     -7.49999987	    -28.64617603	     -1.32124750	     -0.33121869	    125.93217576	    -25.64867969	     35.75390313	     95.20272048	     99.51984206	    124.38836324	    -24.50406086	     33.26797126	     95.78024022	    102.77693466
